# xmcd
#
# Track frame offsets:
#        150
#        30900
#        44707
#        58012
#        76497
#        87040
#        110990
#        143922
#        162725
#        179412
#        192317
#        208967
#        233962
#        250300
#        278562
#        309682
#
# Disc length: 4525 seconds
#
# Revision: 2
# Processed by: cddbd v1.5.1PL2 Copyright (c) Steve Scherf et al.
# Submitted via: ExactAudioCopy v0.95b3
#
DISCID=f011ab10
DTITLE=The O'Jays - The Ultimate O'Jays
DYEAR=1900
DGENRE=Soul
TTITLE0=I Love Music
TTITLE1=Back Stabbers
TTITLE2=Love Train
TTITLE3=Put Your Hands Together
TTITLE4=992 Arguments
TTITLE5=When The World's At Peace
TTITLE6=For The Love Of Money
TTITLE7=Give The People What They Want
TTITLE8=Survival
TTITLE9=Time To Get Down
TTITLE10=Sunshine
TTITLE11=You Got Your Hooks In Me
TTITLE12=Let Me Make Love
TTITLE13=Stairway To Heaven
TTITLE14=Family Reunion
TTITLE15=Livin' For The Weekend
EXTD=
EXTT0=
EXTT1=
EXTT2=
EXTT3=
EXTT4=
EXTT5=
EXTT6=
EXTT7=
EXTT8=
EXTT9=
EXTT10=
EXTT11=
EXTT12=
EXTT13=
EXTT14=
EXTT15=
PLAYORDER=
